<svg width="20" height="21" viewBox="0 0 20 21" fill="none" xmlns="http://www.w3.org/2000/svg">
<path d="M2.5 18H5.625L14.8417 8.78329L11.7167 5.6583L2.5 14.875V18ZM4.16667 15.5666L11.7167 8.01663L12.4833 8.78329L4.93333 16.3333H4.16667V15.5666ZM15.3083 3.24163C15.2312 3.16438 15.1397 3.10309 15.0389 3.06127C14.938 3.01945 14.83 2.99792 14.7208 2.99792C14.6117 2.99792 14.5036 3.01945 14.4028 3.06127C14.302 3.10309 14.2104 3.16438 14.1333 3.24163L12.6083 4.76663L15.7333 7.89163L17.2583 6.36663C17.3356 6.28953 17.3969 6.19796 17.4387 6.09715C17.4805 5.99634 17.502 5.88827 17.502 5.77913C17.502 5.66999 17.4805 5.56192 17.4387 5.46111C17.3969 5.3603 17.3356 5.26872 17.2583 5.19163L15.3083 3.24163Z" fill="#191919"/>
</svg>
