<svg width="12" height="13" viewBox="0 0 12 13" fill="none" xmlns="http://www.w3.org/2000/svg">
<path d="M3.47022 3.00001C3.47008 3.26523 3.3646 3.51953 3.17697 3.70697C2.98934 3.89441 2.73493 3.99964 2.46971 3.99951C2.2045 3.99938 1.9502 3.8939 1.76275 3.70627C1.57531 3.51863 1.47008 3.26423 1.47021 2.99901C1.47035 2.7338 1.57583 2.47949 1.76346 2.29205C1.95109 2.10461 2.2055 1.99938 2.47071 1.99951C2.73593 1.99964 2.99023 2.10513 3.17768 2.29276C3.36512 2.48039 3.47035 2.7348 3.47022 3.00001ZM3.50022 4.74001H1.50021V11H3.50022V4.74001ZM6.66021 4.74001H4.67022V11H6.64021V7.71501C6.64021 5.88501 9.02521 5.71501 9.02521 7.71501V11H11.0002V7.03501C11.0002 3.95001 7.47021 4.06501 6.64021 5.58001L6.66021 4.74001Z" fill="#0A66C2"/>
</svg>
