<svg width="20" height="20" viewBox="0 0 20 20" fill="none" xmlns="http://www.w3.org/2000/svg">
<path d="M9.16642 5.875V3.33333C9.16642 3.11232 9.07862 2.90036 8.92234 2.74408C8.76606 2.5878 8.5541 2.5 8.33309 2.5C8.11447 2.50092 7.90497 2.58771 7.74975 2.74167L1.91642 8.575C1.83831 8.65247 1.77632 8.74464 1.73401 8.84619C1.6917 8.94774 1.66992 9.05666 1.66992 9.16667C1.66992 9.27668 1.6917 9.3856 1.73401 9.48715C1.77632 9.5887 1.83831 9.68086 1.91642 9.75833L7.74975 15.5917C7.86674 15.7063 8.01493 15.784 8.1758 15.8149C8.33667 15.8458 8.50309 15.8286 8.65425 15.7655C8.80541 15.7024 8.93461 15.5961 9.02571 15.4599C9.1168 15.3238 9.16574 15.1638 9.16642 15V12.4167H9.87475C11.1914 12.397 12.4965 12.6641 13.6995 13.1995C14.9025 13.7348 15.9746 14.5255 16.8414 15.5167C16.9459 15.6557 17.0912 15.7586 17.2571 15.8109C17.423 15.8632 17.6011 15.8623 17.7664 15.8083C17.9347 15.7516 18.0804 15.6425 18.1823 15.4971C18.2843 15.3517 18.3371 15.1775 18.3331 15C18.3331 7.4 11.5998 6.1 9.16642 5.875ZM9.87475 10.7333C9.31738 10.7316 8.76054 10.7678 8.20809 10.8417C8.0108 10.8716 7.83081 10.9713 7.70082 11.1227C7.57084 11.2741 7.49949 11.4671 7.49975 11.6667V12.9917L3.68309 9.16667L7.49975 5.34167V6.66667C7.49975 6.88768 7.58755 7.09964 7.74383 7.25592C7.90011 7.4122 8.11207 7.5 8.33309 7.5C9.09142 7.5 15.0914 7.66667 16.3914 12.8583C14.5045 11.4671 12.2191 10.7219 9.87475 10.7333Z" fill="#B2B2B2"/>
</svg>
