<svg width="6" height="6" viewBox="0 0 6 6" fill="none" xmlns="http://www.w3.org/2000/svg">
<path d="M2.76751 3.2125C2.96001 2.865 3.33001 2.66 3.54501 2.3525C3.77251 2.03 3.64501 1.4275 3.00001 1.4275C2.57751 1.4275 2.37001 1.7475 2.28251 2.0125L1.63501 1.74C1.81251 1.2075 2.29501 0.75 2.99751 0.75C3.58501 0.75 3.98751 1.0175 4.19251 1.3525C4.36751 1.64 4.47001 2.1775 4.20001 2.5775C3.90001 3.02 3.61251 3.155 3.45751 3.44C3.39501 3.555 3.37001 3.63 3.37001 4H2.64751C2.64501 3.805 2.61501 3.4875 2.76751 3.2125ZM3.50001 5C3.50001 5.275 3.27501 5.5 3.00001 5.5C2.72501 5.5 2.50001 5.275 2.50001 5C2.50001 4.725 2.72501 4.5 3.00001 4.5C3.27501 4.5 3.50001 4.725 3.50001 5Z" fill="#4B5563"/>
</svg>
