<svg width="32" height="32" viewBox="0 0 32 32" fill="none" xmlns="http://www.w3.org/2000/svg">
<path d="M16.0091 14.6402C14.4561 14.6368 12.958 15.2178 11.8094 16.2692C11.9607 16.44 12.046 16.6598 12.0496 16.8885C12.0496 17.0159 12.0245 17.1421 11.9759 17.2597C11.9272 17.3773 11.8559 17.4841 11.766 17.5739C11.6762 17.6637 11.5696 17.7348 11.4523 17.7829C11.335 17.8311 11.2095 17.8555 11.0828 17.8547C10.9188 17.8549 10.7576 17.8122 10.6148 17.7309C9.91571 18.9251 9.62851 20.3181 9.79791 21.6934C9.96732 23.0687 10.5838 24.3492 11.5514 25.3357C12.5191 26.3223 13.7838 26.9595 15.1487 27.1484C16.5137 27.3373 17.9024 27.0673 19.099 26.3804C20.2956 25.6934 21.233 24.628 21.7654 23.3498C22.2979 22.0716 22.3955 20.6523 22.043 19.3126C21.6906 17.9728 20.9079 16.7878 19.8167 15.9417C18.7255 15.0956 17.3869 14.6359 16.0091 14.634V14.6402ZM16.0091 22.9521C15.6106 22.9521 15.221 22.8332 14.8897 22.6103C14.5585 22.3875 14.3004 22.0708 14.1482 21.7004C13.996 21.33 13.9564 20.9224 14.0346 20.5294C14.1128 20.1363 14.3052 19.7754 14.5874 19.4925C14.8696 19.2095 15.229 19.0171 15.62 18.9396C16.0111 18.8622 16.4161 18.9032 16.7839 19.0574C17.1517 19.2116 17.4659 19.4722 17.6864 19.8061C17.9069 20.1399 18.0239 20.5321 18.0227 20.933C18.0227 21.1986 17.9705 21.4617 17.8693 21.7071C17.768 21.9525 17.6196 22.1754 17.4325 22.3629C17.2455 22.5505 17.0235 22.6991 16.7792 22.8002C16.5349 22.9013 16.2732 22.9529 16.0091 22.9521Z" fill="#FB923C"/>
<path d="M31.4531 26.7982L18.3369 3.94987C17.0561 1.72016 14.9624 1.72016 13.6877 3.94987L0.546879 26.7982C-0.733954 29.0218 0.31288 30.8489 2.87454 30.8489H29.1255C31.6871 30.8675 32.734 29.0403 31.4531 26.7982ZM16.0092 27.8202C14.7846 27.8198 13.5822 27.4898 12.5272 26.8641C11.4723 26.2385 10.603 25.3403 10.0098 24.2626C9.41652 23.1849 9.12094 21.9671 9.15377 20.7357C9.18659 19.5043 9.54651 18.3042 10.1962 17.26C10.1465 17.1448 10.1213 17.0203 10.1223 16.8946C10.1223 16.6384 10.2236 16.3926 10.4037 16.2114C10.5839 16.0302 10.8282 15.9284 11.083 15.9284C11.1403 15.922 11.1981 15.922 11.2554 15.9284C12.0645 15.1459 13.0521 14.575 14.1317 14.2659C15.2112 13.9567 16.3498 13.9187 17.4473 14.1553C18.5449 14.3918 19.5679 14.8957 20.4268 15.6225C21.2856 16.3494 21.954 17.2772 22.3733 18.3245C22.7926 19.3717 22.95 20.5064 22.8317 21.6292C22.7134 22.7518 22.323 23.8281 21.6947 24.7638C21.0665 25.6993 20.2196 26.4655 19.2283 26.9952C18.2371 27.5248 17.1317 27.8017 16.0092 27.8016V27.8202Z" fill="#FED7AA"/>
</svg>
