<svg width="42" height="39" viewBox="0 0 42 39" fill="none" xmlns="http://www.w3.org/2000/svg">
<path d="M34.5178 31.6695C33.7783 30.8422 33.1511 29.9192 32.6527 28.9247C31.8654 27.366 30.7771 25.9822 29.4521 24.855C28.1271 23.7277 26.5921 22.8796 24.9376 22.3608C23.4908 21.909 21.9768 21.7172 20.4644 21.7942C21.5652 21.7307 22.6491 22.0897 23.4988 22.7993C24.3487 23.5089 24.9016 24.5167 25.0468 25.6207C25.4448 28.0062 26.4915 30.2329 28.0701 32.0521C29.6486 33.8714 31.6969 35.2114 33.9859 35.9228C36.6035 36.7353 39.4083 36.6915 41.9998 35.7977C39.1132 35.3222 36.4737 33.8659 34.5178 31.6695Z" fill="#4C1D95"/>
<path d="M15.8384 21.9414C16.1747 23.434 16.7665 24.8559 17.5869 26.1432C16.9878 25.2085 16.7572 24.081 16.9406 22.9831C17.124 21.8851 17.7082 20.8965 18.5777 20.2121C20.4244 18.6691 21.8109 16.6387 22.5827 14.3468C23.3544 12.055 23.4812 9.59175 22.9489 7.23147C22.3412 4.53136 20.8998 2.09624 18.8326 0.277557C19.8618 3.05625 19.9209 6.10663 19.0002 8.92396C18.6477 9.98757 18.1578 10.9995 17.5431 11.9336C16.5994 13.401 15.9565 15.0447 15.6524 16.7675C15.3483 18.4902 15.3892 20.257 15.7728 21.9635L15.8384 21.9414Z" fill="#4C1D95"/>
<path d="M22.7958 26.4449C22.3002 27.4402 21.4503 28.2095 20.4167 28.5984C19.3831 28.9874 18.2421 28.9672 17.2225 28.5421C14.9757 27.6916 12.5389 27.4889 10.1845 27.9567C7.83013 28.4245 5.65094 29.5444 3.89044 31.1912C1.88311 33.0773 0.520755 35.5587 0 38.2775C1.86789 35.9874 4.45323 34.4091 7.32904 33.8035C8.40946 33.5802 9.51318 33.4936 10.6147 33.5459C12.3426 33.6364 14.0708 33.3763 15.6975 32.781C17.3241 32.1857 18.8162 31.2673 20.0857 30.08C21.1967 29.0379 22.1188 27.8077 22.8104 26.4449H22.7958Z" fill="#4C1D95"/>
</svg>
