<svg width="32" height="32" viewBox="0 0 32 32" fill="none" xmlns="http://www.w3.org/2000/svg">
<path d="M5.78694 9.0722L8.02783 10.1926C8.44033 10.3728 8.88918 10.454 9.33859 10.4297C9.788 10.4054 10.2255 10.2762 10.6161 10.0526L12.7338 8.67444C13.0981 8.40996 13.3947 8.0629 13.5992 7.66173C13.8037 7.26055 13.9103 6.81663 13.9102 6.36632L13.7758 3.83971C13.7267 3.39305 13.5734 2.96408 13.3282 2.5875C13.083 2.21092 12.7527 1.89719 12.364 1.67165L10.1231 0.523189C9.71142 0.340892 9.26257 0.258091 8.81293 0.281452C8.3633 0.304814 7.92542 0.433665 7.53484 0.657642L5.41725 2.03579C5.05349 2.30095 4.75736 2.64812 4.55299 3.04918C4.34857 3.45019 4.24156 3.89383 4.24072 4.34391L4.37518 6.87052C4.4187 7.3233 4.56946 7.75915 4.81495 8.14201C5.06044 8.52492 5.39366 8.8438 5.78694 9.0722Z" fill="#9333EA"/>
<path d="M19.3051 12.3439L17.0642 11.1955C16.6527 11.0154 16.2048 10.9342 15.7562 10.9586C15.3077 10.9829 14.8712 11.112 14.4816 11.3355L12.3415 12.7137C11.9791 12.9801 11.6839 13.3275 11.4797 13.7283C11.2754 14.129 11.1676 14.572 11.165 15.0218L11.2995 17.5484C11.3486 17.9951 11.5018 18.4241 11.7471 18.8007C11.9923 19.1773 12.3226 19.491 12.7113 19.7165L14.9521 20.8369C15.3629 21.0192 15.8108 21.102 16.2596 21.0787C16.7083 21.0553 17.1452 20.9264 17.5348 20.7025L19.658 19.3243C20.0206 19.0568 20.3157 18.7083 20.5199 18.3066C20.7242 17.905 20.8319 17.4612 20.8345 17.0106L20.7 14.4896C20.6487 14.0486 20.496 13.6255 20.2541 13.2533C20.012 12.8811 19.6873 12.5699 19.3051 12.3439Z" fill="#9333EA"/>
<path d="M26.2185 22.9995L23.9776 21.8791C23.5659 21.6967 23.1171 21.6139 22.6674 21.6373C22.2178 21.6606 21.7799 21.7895 21.3893 22.0135L19.2717 23.3917C18.9086 23.6574 18.613 24.0047 18.4087 24.4056C18.2043 24.8065 18.097 25.2498 18.0952 25.6998L18.2297 28.2264C18.2833 28.6659 18.4376 29.0871 18.6805 29.4573C18.9234 29.8275 19.2484 30.1367 19.6303 30.3609L21.8712 31.4813C22.2836 31.6614 22.7325 31.7426 23.1819 31.7183C23.6313 31.694 24.0688 31.5648 24.4594 31.3413L26.5826 29.9631C26.9453 29.6973 27.2404 29.3499 27.4438 28.9489C27.6472 28.5479 27.7533 28.1046 27.7535 27.655L27.6358 25.1732C27.5875 24.7248 27.4339 24.2943 27.1876 23.9165C26.9413 23.5388 26.6092 23.2246 26.2185 22.9995Z" fill="#9333EA"/>
<path d="M9.70867 16.7248L9.60223 14.7584C9.60481 14.3086 9.71254 13.8656 9.91685 13.4649C10.1211 13.0641 10.4162 12.7166 10.7787 12.4502L14.9076 9.76677C15.2971 9.54324 15.7337 9.41411 16.1822 9.3898C16.6307 9.36548 17.0787 9.44666 17.4902 9.62672L19.2493 10.5231C19.661 10.7054 20.1098 10.7882 20.5594 10.7649C21.0091 10.7415 21.4469 10.6126 21.8375 10.3886L23.9552 9.00487C24.3186 8.73943 24.6144 8.39221 24.8188 7.9912C25.0232 7.59025 25.1303 7.14683 25.1316 6.69675L24.9972 4.17574C24.949 3.72807 24.7961 3.29798 24.5508 2.92039C24.3055 2.54275 23.9748 2.22818 23.5854 2.00207L21.3445 0.853615C20.9321 0.673503 20.4832 0.592326 20.0338 0.61664C19.5844 0.640953 19.1469 0.770085 18.7563 0.99367L16.5938 2.34941C16.2311 2.61518 15.9361 2.96263 15.7326 3.36364C15.5292 3.76465 15.4231 4.2079 15.423 4.65753L15.5238 6.62392C15.5236 7.07361 15.4175 7.51686 15.214 7.91787C15.0106 8.31887 14.7156 8.66632 14.3529 8.93204L10.2241 11.6155C9.83349 11.8395 9.39568 11.9684 8.94604 11.9918C8.49635 12.0151 8.04756 11.9323 7.63585 11.75L5.88235 10.8592C5.47064 10.6769 5.02185 10.5941 4.57215 10.6175C4.12252 10.6408 3.6847 10.7697 3.29411 10.9937L1.17647 12.3718C0.812716 12.637 0.516639 12.9841 0.312213 13.3852C0.107787 13.7863 0.000840335 14.2299 0 14.6799L0.134452 17.2065C0.182184 17.6544 0.334957 18.0846 0.580222 18.4623C0.825544 18.84 1.15647 19.1545 1.54622 19.3802L3.78711 20.5007C4.19955 20.6808 4.6484 20.762 5.09781 20.7377C5.54722 20.7134 5.98476 20.5842 6.37534 20.3606L8.49299 18.9825C8.85691 18.7263 9.15613 18.3889 9.36716 17.997C9.57814 17.6052 9.69506 17.1696 9.70867 16.7248Z" fill="#C084FC"/>
<path d="M31.8879 14.8313C31.8379 14.3841 31.6843 13.9547 31.4392 13.5774C31.1941 13.2 30.8643 12.8851 30.4761 12.6577L28.2352 11.5372C27.8227 11.3575 27.3738 11.2765 26.9245 11.3009C26.4751 11.3252 26.0377 11.4541 25.647 11.6773L23.5293 13.0554C23.1662 13.3212 22.8706 13.6685 22.6662 14.0694C22.4619 14.4703 22.3545 14.9136 22.3529 15.3635L22.4593 17.3355C22.4576 17.7854 22.3502 18.2287 22.1458 18.6296C21.9415 19.0305 21.6459 19.3779 21.2828 19.6436L17.1595 22.3215C16.7689 22.5451 16.3315 22.6742 15.882 22.6985C15.4326 22.7229 14.9838 22.6417 14.5713 22.4616L12.8122 21.5652C12.4007 21.3851 11.9527 21.3039 11.5042 21.3282C11.0557 21.3526 10.6192 21.4817 10.2296 21.7053L8.0895 23.0778C7.72709 23.3442 7.43197 23.6916 7.22765 24.0924C7.02339 24.4931 6.91566 24.9361 6.91309 25.3859L7.04748 27.9125C7.09656 28.3592 7.24984 28.7882 7.49505 29.1648C7.74031 29.5413 8.07056 29.8551 8.4593 30.0806L10.7002 31.2291C11.1109 31.4113 11.5588 31.4941 12.0075 31.4708C12.4563 31.4474 12.8932 31.3185 13.2828 31.0946L15.406 29.7164C15.7682 29.4497 16.0631 29.1022 16.2673 28.7016C16.4716 28.3008 16.5795 27.858 16.5825 27.4083L16.4761 25.4363C16.4773 24.9863 16.5845 24.5429 16.7889 24.1419C16.9932 23.7409 17.2891 23.3937 17.6525 23.1282L21.7758 20.4448C22.1664 20.2208 22.6042 20.0919 23.0539 20.0685C23.5035 20.0452 23.9523 20.128 24.364 20.3103L26.1175 21.2011C26.5292 21.3834 26.9781 21.4662 27.4277 21.4428C27.8773 21.4194 28.3151 21.2906 28.7057 21.0666L30.829 19.6885C31.1914 19.4224 31.4862 19.0749 31.6895 18.674C31.893 18.273 31.9992 17.8299 31.9998 17.3803L31.8879 14.8313Z" fill="#C084FC"/>
</svg>
