<svg width="32" height="32" viewBox="0 0 32 32" fill="none" xmlns="http://www.w3.org/2000/svg">
<path d="M16.0093 14.6402C14.4563 14.6368 12.9582 15.2178 11.8097 16.2692C11.961 16.44 12.0462 16.6598 12.0498 16.8885C12.0498 17.0159 12.0248 17.1421 11.9761 17.2597C11.9275 17.3773 11.8562 17.4841 11.7663 17.5739C11.6764 17.6637 11.5698 17.7348 11.4525 17.7829C11.3353 17.8311 11.2097 17.8555 11.0831 17.8547C10.919 17.8549 10.7578 17.8122 10.6151 17.7309C9.91596 18.9251 9.62876 20.3181 9.79816 21.6934C9.96756 23.0687 10.584 24.3492 11.5517 25.3357C12.5194 26.3223 13.784 26.9595 15.149 27.1484C16.5139 27.3373 17.9027 27.0673 19.0993 26.3804C20.2959 25.6934 21.2333 24.628 21.7657 23.3498C22.2981 22.0716 22.3957 20.6523 22.0433 19.3126C21.6909 17.9728 20.9081 16.7878 19.817 15.9417C18.7257 15.0956 17.3872 14.6359 16.0093 14.634V14.6402ZM16.0093 22.9521C15.6108 22.9521 15.2213 22.8332 14.89 22.6103C14.5587 22.3875 14.3007 22.0708 14.1484 21.7004C13.9962 21.33 13.9567 20.9224 14.0349 20.5294C14.1131 20.1363 14.3055 19.7754 14.5877 19.4925C14.8699 19.2095 15.2293 19.0171 15.6203 18.9396C16.0113 18.8622 16.4164 18.9032 16.7842 19.0574C17.152 19.2116 17.4661 19.4722 17.6866 19.8061C17.9071 20.1399 18.0242 20.5321 18.0229 20.933C18.0229 21.1986 17.9708 21.4617 17.8696 21.7071C17.7683 21.9525 17.6199 22.1754 17.4328 22.3629C17.2458 22.5505 17.0237 22.6991 16.7794 22.8002C16.5352 22.9013 16.2734 22.9529 16.0093 22.9521Z" fill="#FB923C"/>
<path d="M31.4531 26.7982L18.3369 3.94987C17.0561 1.72016 14.9624 1.72016 13.6877 3.94987L0.546879 26.7982C-0.733954 29.0218 0.31288 30.8489 2.87454 30.8489H29.1255C31.6871 30.8675 32.734 29.0403 31.4531 26.7982ZM16.0092 27.8202C14.7846 27.8198 13.5822 27.4898 12.5272 26.8641C11.4723 26.2385 10.603 25.3403 10.0098 24.2626C9.41652 23.1849 9.12094 21.9671 9.15377 20.7357C9.18659 19.5043 9.54651 18.3042 10.1962 17.26C10.1465 17.1448 10.1213 17.0203 10.1223 16.8946C10.1223 16.6384 10.2236 16.3926 10.4037 16.2114C10.5839 16.0302 10.8282 15.9284 11.083 15.9284C11.1403 15.922 11.1981 15.922 11.2554 15.9284C12.0645 15.1459 13.0521 14.575 14.1317 14.2659C15.2112 13.9567 16.3498 13.9187 17.4473 14.1553C18.5449 14.3918 19.5679 14.8957 20.4268 15.6225C21.2856 16.3494 21.954 17.2772 22.3733 18.3245C22.7926 19.3717 22.95 20.5064 22.8317 21.6292C22.7134 22.7518 22.323 23.8281 21.6947 24.7638C21.0665 25.6993 20.2196 26.4655 19.2283 26.9952C18.2371 27.5248 17.1317 27.8017 16.0092 27.8016V27.8202Z" fill="#FED7AA"/>
</svg>
