<svg width="32" height="32" viewBox="0 0 32 32" fill="none" xmlns="http://www.w3.org/2000/svg">
<path d="M5.78718 9.0722L8.02808 10.1926C8.44057 10.3728 8.88942 10.454 9.33883 10.4297C9.78825 10.4054 10.2257 10.2762 10.6163 10.0526L12.734 8.67444C13.0984 8.40996 13.395 8.0629 13.5994 7.66173C13.8039 7.26055 13.9105 6.81663 13.9104 6.36632L13.776 3.83971C13.727 3.39305 13.5737 2.96408 13.3285 2.5875C13.0832 2.21092 12.7529 1.89719 12.3642 1.67165L10.1233 0.523189C9.71166 0.340892 9.26281 0.258091 8.81318 0.281452C8.36354 0.304814 7.92567 0.433665 7.53508 0.657642L5.41749 2.03579C5.05374 2.30095 4.7576 2.64812 4.55324 3.04918C4.34881 3.45019 4.24181 3.89383 4.24097 4.34391L4.37542 6.87052C4.41895 7.3233 4.5697 7.75915 4.81519 8.14201C5.06068 8.52492 5.39391 8.8438 5.78718 9.0722Z" fill="#9333EA"/>
<path d="M19.3053 12.3439L17.0644 11.1955C16.653 11.0154 16.205 10.9342 15.7565 10.9586C15.308 10.9829 14.8714 11.112 14.4818 11.3355L12.3418 12.7137C11.9793 12.9801 11.6842 13.3275 11.4799 13.7283C11.2756 14.129 11.1679 14.572 11.1653 15.0218L11.2998 17.5484C11.3488 17.9951 11.5021 18.4241 11.7473 18.8007C11.9926 19.1773 12.3228 19.491 12.7115 19.7165L14.9524 20.8369C15.3632 21.0192 15.811 21.102 16.2598 21.0787C16.7086 21.0553 17.1454 20.9264 17.535 20.7025L19.6583 19.3243C20.0209 19.0568 20.316 18.7083 20.5202 18.3066C20.7244 17.905 20.8322 17.4612 20.8347 17.0106L20.7003 14.4896C20.6489 14.0486 20.4963 13.6255 20.2543 13.2533C20.0123 12.8811 19.6875 12.5699 19.3053 12.3439Z" fill="#9333EA"/>
<path d="M26.2185 22.9994L23.9776 21.879C23.5659 21.6966 23.1171 21.6138 22.6674 21.6372C22.2178 21.6605 21.7799 21.7894 21.3893 22.0134L19.2717 23.3916C18.9086 23.6573 18.613 24.0046 18.4087 24.4055C18.2043 24.8064 18.097 25.2497 18.0952 25.6997L18.2297 28.2263C18.2833 28.6658 18.4376 29.087 18.6805 29.4572C18.9234 29.8274 19.2484 30.1365 19.6303 30.3607L21.8712 31.4812C22.2836 31.6613 22.7325 31.7425 23.1819 31.7182C23.6313 31.6939 24.0688 31.5647 24.4594 31.3411L26.5826 29.963C26.9453 29.6972 27.2404 29.3498 27.4438 28.9488C27.6472 28.5477 27.7533 28.1045 27.7535 27.6549L27.6358 25.1731C27.5875 24.7247 27.4339 24.2941 27.1876 23.9164C26.9413 23.5387 26.6092 23.2244 26.2185 22.9994Z" fill="#9333EA"/>
<path d="M9.70867 16.7246L9.60223 14.7582C9.60481 14.3084 9.71254 13.8655 9.91685 13.4647C10.1211 13.064 10.4162 12.7165 10.7787 12.4501L14.9076 9.76665C15.2971 9.54312 15.7337 9.41399 16.1822 9.38968C16.6307 9.36536 17.0787 9.44654 17.4902 9.62659L19.2493 10.523C19.661 10.7052 20.1098 10.7881 20.5594 10.7647C21.0091 10.7414 21.4469 10.6125 21.8375 10.3885L23.9552 9.00475C24.3186 8.73931 24.6144 8.39209 24.8188 7.99108C25.0232 7.59013 25.1303 7.14671 25.1316 6.69663L24.9972 4.17562C24.949 3.72794 24.7961 3.29786 24.5508 2.92027C24.3055 2.54262 23.9748 2.22806 23.5854 2.00195L21.3445 0.853492C20.9321 0.673381 20.4832 0.592204 20.0338 0.616518C19.5844 0.640831 19.1469 0.769963 18.7563 0.993548L16.5938 2.34929C16.2311 2.61506 15.9361 2.96251 15.7326 3.36352C15.5292 3.76453 15.4231 4.20778 15.423 4.65741L15.5238 6.6238C15.5236 7.07349 15.4175 7.51674 15.214 7.91774C15.0106 8.31875 14.7156 8.6662 14.3529 8.93192L10.2241 11.6154C9.83349 11.8394 9.39568 11.9683 8.94604 11.9916C8.49635 12.015 8.04756 11.9321 7.63585 11.7498L5.88235 10.8591C5.47064 10.6768 5.02185 10.594 4.57215 10.6174C4.12252 10.6407 3.6847 10.7696 3.29411 10.9935L1.17647 12.3717C0.812716 12.6368 0.516639 12.984 0.312213 13.3851C0.107787 13.7861 0.000840335 14.2297 0 14.6798L0.134452 17.2064C0.182184 17.6543 0.334957 18.0845 0.580222 18.4622C0.825544 18.8399 1.15647 19.1544 1.54622 19.3801L3.78711 20.5005C4.19955 20.6807 4.6484 20.7619 5.09781 20.7376C5.54722 20.7133 5.98476 20.5841 6.37534 20.3605L8.49299 18.9823C8.85691 18.7261 9.15613 18.3888 9.36716 17.9969C9.57814 17.6051 9.69506 17.1695 9.70867 16.7246Z" fill="#C084FC"/>
<path d="M31.8881 14.8313C31.8382 14.3841 31.6846 13.9547 31.4395 13.5774C31.1944 13.2 30.8646 12.8851 30.4763 12.6577L28.2354 11.5372C27.8229 11.3575 27.374 11.2765 26.9247 11.3009C26.4754 11.3252 26.0379 11.4541 25.6472 11.6773L23.5295 13.0554C23.1664 13.3212 22.8709 13.6685 22.6665 14.0694C22.4622 14.4703 22.3548 14.9136 22.3531 15.3635L22.4595 17.3355C22.4578 17.7854 22.3505 18.2287 22.1461 18.6296C21.9418 19.0305 21.6461 19.3779 21.283 19.6436L17.1598 22.3215C16.7692 22.5451 16.3317 22.6742 15.8823 22.6985C15.4329 22.7229 14.984 22.6417 14.5715 22.4616L12.8124 21.5652C12.4009 21.3851 11.953 21.3039 11.5045 21.3282C11.056 21.3526 10.6194 21.4817 10.2298 21.7053L8.08974 23.0778C7.72733 23.3442 7.43221 23.6916 7.2279 24.0924C7.02364 24.4931 6.91591 24.9361 6.91333 25.3859L7.04773 27.9125C7.0968 28.3592 7.25008 28.7882 7.49529 29.1648C7.74056 29.5413 8.07081 29.8551 8.45955 30.0806L10.7004 31.2291C11.1111 31.4113 11.559 31.4941 12.0078 31.4708C12.4566 31.4474 12.8934 31.3185 13.2831 31.0946L15.4063 29.7164C15.7684 29.4497 16.0634 29.1022 16.2676 28.7016C16.4718 28.3008 16.5797 27.858 16.5828 27.4083L16.4763 25.4363C16.4776 24.9863 16.5848 24.5429 16.7891 24.1419C16.9935 23.7409 17.2893 23.3937 17.6528 23.1282L21.776 20.4448C22.1666 20.2208 22.6045 20.0919 23.0541 20.0685C23.5037 20.0452 23.9525 20.128 24.3642 20.3103L26.1177 21.2011C26.5294 21.3834 26.9783 21.4662 27.4279 21.4428C27.8776 21.4194 28.3154 21.2906 28.706 21.0666L30.8293 19.6885C31.1916 19.4224 31.4864 19.0749 31.6898 18.674C31.8932 18.273 31.9995 17.8299 32.0001 17.3803L31.8881 14.8313Z" fill="#C084FC"/>
</svg>
