<svg width="42" height="39" viewBox="0 0 42 39" fill="none" xmlns="http://www.w3.org/2000/svg">
<path d="M34.518 31.6696C33.7785 30.8423 33.1513 29.9192 32.653 28.9248C31.8656 27.3661 30.7773 25.9823 29.4524 24.855C28.1273 23.7278 26.5923 22.8797 24.9378 22.3609C23.491 21.9091 21.977 21.7173 20.4646 21.7943C21.5654 21.7308 22.6493 22.0897 23.4991 22.7994C24.3489 23.509 24.9019 24.5167 25.0471 25.6208C25.4451 28.0062 26.4918 30.2329 28.0703 32.0521C29.6489 33.8714 31.6971 35.2115 33.9862 35.9229C36.6037 36.7354 39.4086 36.6916 42 35.7978C39.1134 35.3222 36.474 33.866 34.518 31.6696Z" fill="#4C1D95"/>
<path d="M15.8384 21.9414C16.1747 23.434 16.7665 24.856 17.5869 26.1432C16.9878 25.2085 16.7572 24.081 16.9406 22.9831C17.124 21.8851 17.7082 20.8965 18.5777 20.2121C20.4244 18.6692 21.8109 16.6387 22.5827 14.3469C23.3544 12.055 23.4812 9.59178 22.9489 7.2315C22.3412 4.53139 20.8998 2.09627 18.8326 0.277588C19.8618 3.05628 19.9209 6.10666 19.0002 8.92399C18.6477 9.9876 18.1578 10.9996 17.5431 11.9337C16.5994 13.4011 15.9565 15.0448 15.6524 16.7675C15.3483 18.4902 15.3892 20.257 15.7728 21.9635L15.8384 21.9414Z" fill="#4C1D95"/>
<path d="M22.7958 26.4449C22.3002 27.4403 21.4503 28.2096 20.4167 28.5985C19.3831 28.9875 18.2421 28.9673 17.2225 28.5422C14.9757 27.6916 12.5389 27.489 10.1845 27.9568C7.83013 28.4246 5.65094 29.5445 3.89044 31.1913C1.88311 33.0774 0.520755 35.5588 0 38.2776C1.86789 35.9875 4.45323 34.4092 7.32904 33.8036C8.40946 33.5802 9.51318 33.4937 10.6147 33.546C12.3426 33.6365 14.0708 33.3763 15.6975 32.7811C17.3241 32.1858 18.8162 31.2674 20.0857 30.0801C21.1967 29.038 22.1188 27.8078 22.8104 26.4449H22.7958Z" fill="#4C1D95"/>
</svg>
