<svg width="32" height="32" viewBox="0 0 32 32" fill="none" xmlns="http://www.w3.org/2000/svg">
<path d="M9.07063 3.78632C8.51967 4.14836 8.06092 4.63548 7.73121 5.20833C7.40155 5.78119 7.2101 6.42389 7.17236 7.08475V10.8411C7.2101 11.5019 7.40155 12.1446 7.73121 12.7175C8.06092 13.2904 8.51967 13.7774 9.07063 14.1395L12.9983 16.4678C14.04 17.0731 14.8965 16.5765 14.8965 15.3657V2.63768C14.8965 1.42698 14.04 0.930317 12.9983 1.53567L9.07063 3.78632Z" fill="#7086FF"/>
<path d="M8.66153 14.9534C8.09126 14.6678 7.46114 14.5189 6.82208 14.5189C6.18301 14.5189 5.55289 14.6678 4.98263 14.9534L1.8432 16.7346C1.30825 17.0809 0.862788 17.5466 0.542622 18.0944C0.222511 18.6423 0.0366345 19.2569 0 19.8888V24.2527C0 25.4105 0.831726 25.8855 1.8432 25.3066L12.4828 19.2209C13.4943 18.642 13.4943 17.6994 12.4828 17.1205L8.66153 14.9534Z" fill="#7086FF"/>
<path d="M22.9294 3.78632C23.4804 4.14836 23.9392 4.63548 24.2688 5.20833C24.5985 5.78119 24.79 6.42389 24.8277 7.08475V10.8411C24.79 11.5019 24.5985 12.1446 24.2688 12.7175C23.9392 13.2904 23.4804 13.7774 22.9294 14.1395L18.9941 16.4678C17.9523 17.0731 17.1035 16.5765 17.1035 15.3657V2.63768C17.1035 1.42698 17.9523 0.930317 18.9941 1.53567L22.9294 3.78632Z" fill="#7086FF"/>
<path d="M22.9805 14.9534C23.5749 14.6678 24.2316 14.5189 24.8976 14.5189C25.5637 14.5189 26.2204 14.6678 26.8148 14.9534L30.0869 16.7346C30.6434 17.0812 31.1066 17.5473 31.4389 18.0951C31.7712 18.643 31.9634 19.2574 32.0001 19.8888V24.2527C32.0001 25.4105 31.1411 25.8855 30.0869 25.3066L18.9977 19.2209C17.9435 18.642 17.9435 17.6994 18.9977 17.1205L22.9805 14.9534Z" fill="#7086FF"/>
<path d="M6.78954 31.1884C7.36014 31.4737 7.99059 31.6224 8.62998 31.6224C9.26943 31.6224 9.89989 31.4737 10.4705 31.1884L13.6117 29.4022C14.1462 29.0545 14.5907 28.5877 14.9097 28.0394C15.2287 27.4911 15.4132 26.8764 15.4484 26.2449V21.8868C15.4484 20.7306 14.6238 20.2563 13.6117 20.8343L2.96609 26.9119C1.95401 27.49 1.95401 28.4313 2.96609 29.0094L6.78954 31.1884Z" fill="#7086FF"/>
<path d="M16 26.2485C16.0374 26.8785 16.2298 27.4915 16.5621 28.0382C16.8944 28.5849 17.3571 29.05 17.9133 29.3964L21.1854 31.1888C21.7798 31.4739 22.4365 31.6224 23.1026 31.6224C23.7686 31.6224 24.4253 31.4739 25.0197 31.1888L29.0024 29.0038C30.0567 28.4261 30.0567 27.4854 29.0024 26.9077L17.9133 20.8342C16.859 20.2565 16 20.7306 16 21.886V26.2485Z" fill="#7086FF"/>
</svg>
