<svg width="32" height="32" viewBox="0 0 32 32" fill="none" xmlns="http://www.w3.org/2000/svg">
<path d="M5.78712 9.07217L8.02802 10.1926C8.44051 10.3728 8.88936 10.454 9.33877 10.4297C9.78818 10.4053 10.2257 10.2762 10.6162 10.0526L12.734 8.67441C13.0983 8.40993 13.3949 8.06287 13.5994 7.6617C13.8039 7.26052 13.9105 6.8166 13.9104 6.36629L13.776 3.83968C13.7269 3.39302 13.5736 2.96405 13.3284 2.58747C13.0831 2.21089 12.7529 1.89716 12.3641 1.67162L10.1233 0.523158C9.7116 0.340861 9.26275 0.258061 8.81311 0.281422C8.36348 0.304783 7.92561 0.433634 7.53502 0.657612L5.41743 2.03576C5.05368 2.30092 4.75754 2.64809 4.55317 3.04915C4.34875 3.45016 4.24175 3.8938 4.24091 4.34388L4.37536 6.87049C4.41889 7.32327 4.56964 7.75912 4.81513 8.14198C5.06062 8.52489 5.39385 8.84377 5.78712 9.07217Z" fill="#414042"/>
<path d="M19.3053 12.3439L17.0644 11.1955C16.6529 11.0154 16.2049 10.9342 15.7564 10.9586C15.3079 10.9829 14.8714 11.112 14.4817 11.3355L12.3417 12.7137C11.9793 12.9801 11.6841 13.3275 11.4798 13.7283C11.2756 14.129 11.1678 14.572 11.1652 15.0218L11.2997 17.5484C11.3488 17.9951 11.502 18.4241 11.7472 18.8007C11.9925 19.1773 12.3228 19.491 12.7114 19.7165L14.9523 20.8369C15.3631 21.0192 15.811 21.102 16.2598 21.0787C16.7085 21.0553 17.1454 20.9264 17.535 20.7025L19.6582 19.3243C20.0208 19.0568 20.3159 18.7083 20.5201 18.3066C20.7244 17.905 20.8321 17.4612 20.8347 17.0106L20.7002 14.4896C20.6489 14.0486 20.4962 13.6255 20.2542 13.2533C20.0122 12.8811 19.6875 12.5699 19.3053 12.3439Z" fill="#414042"/>
<path d="M26.2185 22.9995L23.9776 21.879C23.5659 21.6967 23.1171 21.6139 22.6675 21.6372C22.2178 21.6606 21.78 21.7894 21.3894 22.0135L19.2718 23.3916C18.9087 23.6573 18.613 24.0047 18.4087 24.4056C18.2044 24.8065 18.097 25.2498 18.0953 25.6997L18.2298 28.2264C18.2834 28.6659 18.4377 29.0871 18.6806 29.4572C18.9235 29.8274 19.2485 30.1366 19.6303 30.3608L21.8712 31.4813C22.2837 31.6614 22.7325 31.7425 23.1819 31.7182C23.6314 31.6939 24.0688 31.5648 24.4595 31.3412L26.5827 29.963C26.9454 29.6973 27.2404 29.3498 27.4438 28.9488C27.6473 28.5478 27.7534 28.1046 27.7536 27.6549L27.6359 25.1731C27.5875 24.7248 27.434 24.2942 27.1877 23.9164C26.9414 23.5387 26.6093 23.2245 26.2185 22.9995Z" fill="#414042"/>
<path d="M9.70867 16.7247L9.60223 14.7583C9.60481 14.3085 9.71254 13.8655 9.91685 13.4648C10.1211 13.064 10.4162 12.7166 10.7787 12.4502L14.9076 9.76671C15.2971 9.54318 15.7337 9.41405 16.1822 9.38974C16.6307 9.36542 17.0787 9.4466 17.4902 9.62666L19.2493 10.523C19.661 10.7053 20.1098 10.7882 20.5594 10.7648C21.0091 10.7414 21.4469 10.6125 21.8375 10.3886L23.9552 9.00481C24.3186 8.73937 24.6144 8.39215 24.8188 7.99114C25.0232 7.59019 25.1303 7.14677 25.1316 6.69669L24.9972 4.17568C24.949 3.72801 24.7961 3.29792 24.5508 2.92033C24.3055 2.54268 23.9748 2.22812 23.5854 2.00201L21.3445 0.853554C20.9321 0.673442 20.4832 0.592265 20.0338 0.616579C19.5844 0.640892 19.1469 0.770024 18.7563 0.993609L16.5938 2.34935C16.2311 2.61512 15.9361 2.96257 15.7326 3.36358C15.5292 3.76459 15.4231 4.20784 15.423 4.65747L15.5238 6.62386C15.5236 7.07355 15.4175 7.5168 15.214 7.91781C15.0106 8.31881 14.7156 8.66626 14.3529 8.93198L10.2241 11.6154C9.83349 11.8394 9.39568 11.9683 8.94604 11.9917C8.49635 12.0151 8.04755 11.9322 7.63585 11.7499L5.88235 10.8591C5.47064 10.6769 5.02184 10.5941 4.57215 10.6174C4.12252 10.6408 3.6847 10.7696 3.29411 10.9936L1.17647 12.3718C0.812716 12.6369 0.516639 12.9841 0.312213 13.3851C0.107787 13.7862 0.000840335 14.2298 0 14.6799L0.134452 17.2065C0.182184 17.6543 0.334957 18.0846 0.580222 18.4623C0.825544 18.84 1.15647 19.1544 1.54622 19.3801L3.78711 20.5006C4.19955 20.6808 4.6484 20.7619 5.09781 20.7376C5.54722 20.7133 5.98476 20.5842 6.37534 20.3605L8.49299 18.9824C8.85691 18.7262 9.15613 18.3888 9.36716 17.997C9.57814 17.6051 9.69506 17.1696 9.70867 16.7247Z" fill="#414042"/>
<path d="M31.888 14.8313C31.8381 14.384 31.6845 13.9547 31.4394 13.5773C31.1943 13.1999 30.8645 12.885 30.4763 12.6576L28.2354 11.5371C27.8228 11.3574 27.374 11.2765 26.9247 11.3008C26.4753 11.3251 26.0378 11.454 25.6471 11.6772L23.5294 13.0554C23.1664 13.3211 22.8708 13.6684 22.6664 14.0693C22.4621 14.4702 22.3547 14.9135 22.353 15.3635L22.4595 17.3355C22.4577 17.7854 22.3504 18.2287 22.146 18.6296C21.9417 19.0305 21.6461 19.3778 21.283 19.6436L17.1597 22.3215C16.7691 22.545 16.3316 22.6742 15.8822 22.6985C15.4328 22.7228 14.984 22.6416 14.5715 22.4615L12.8124 21.5652C12.4009 21.385 11.9529 21.3039 11.5044 21.3282C11.0559 21.3525 10.6194 21.4816 10.2297 21.7052L8.08968 23.0778C7.72727 23.3441 7.43215 23.6915 7.22783 24.0923C7.02358 24.493 6.91585 24.936 6.91327 25.3859L7.04767 27.9124C7.09674 28.3592 7.25002 28.7881 7.49523 29.1647C7.74049 29.5413 8.07075 29.855 8.45949 30.0806L10.7004 31.229C11.1111 31.4113 11.559 31.4941 12.0077 31.4707C12.4565 31.4473 12.8934 31.3184 13.283 31.0945L15.4062 29.7164C15.7683 29.4497 16.0633 29.1022 16.2675 28.7015C16.4717 28.3008 16.5796 27.858 16.5827 27.4083L16.4763 25.4362C16.4775 24.9862 16.5847 24.5428 16.7891 24.1418C16.9934 23.7408 17.2893 23.3936 17.6527 23.1281L21.7759 20.4447C22.1665 20.2207 22.6044 20.0918 23.054 20.0685C23.5037 20.0451 23.9525 20.1279 24.3642 20.3102L26.1177 21.201C26.5294 21.3833 26.9782 21.4661 27.4279 21.4427C27.8775 21.4194 28.3153 21.2905 28.7059 21.0666L30.8292 19.6884C31.1916 19.4223 31.4864 19.0748 31.6897 18.6739C31.8931 18.2729 31.9994 17.8298 32 17.3803L31.888 14.8313Z" fill="#414042"/>
</svg>
