<svg width="32" height="36" viewBox="0 0 32 36" fill="none" xmlns="http://www.w3.org/2000/svg">
<path d="M16 24.4189C15.0268 24.4233 14.0663 24.1875 13.1976 23.731C12.3289 23.2744 11.5765 22.6102 11.0023 21.7927L7 24.1841C7.1523 24.3668 7.3326 24.5219 7.53365 24.6432L14.6556 28.9135C15.0719 29.1347 15.5326 29.25 16 29.25C16.4674 29.25 16.9281 29.1347 17.3443 28.9135L24.4664 24.6432C24.6674 24.5219 24.8477 24.3668 25 24.1841L21.008 21.75C20.4371 22.5768 19.6852 23.2503 18.8142 23.7144C17.9433 24.1786 16.9786 24.4201 16 24.4189Z" fill="#414042"/>
<path d="M9.73365 17.9745C9.7373 16.4562 10.3274 14.9925 11.3911 13.8631C12.4549 12.7336 13.9178 12.0177 15.5 11.8521V7.25C15.2599 7.2976 15.029 7.3802 14.8153 7.4949L7.39075 11.5765C6.9872 11.834 6.65165 12.1772 6.4104 12.5791C6.1691 12.9809 6.02865 13.4306 6 13.8929V22.0561C6.0033 22.2916 6.0429 22.5255 6.11765 22.75L10.29 20.4541C9.92515 19.6737 9.73565 18.829 9.73365 17.9745Z" fill="#414042"/>
<path d="M24.6824 11.5737L17.6487 7.49475C17.4463 7.3801 17.2274 7.29755 17 7.25V11.8388C17.9556 11.9478 18.8724 12.2808 19.6766 12.8114C20.4808 13.342 21.1499 14.0551 21.6301 14.8934C22.1103 15.7317 22.3881 16.6718 22.4412 17.6379C22.4943 18.604 22.3212 19.5691 21.9358 20.4556L25.8885 22.75C25.9593 22.5256 25.9969 22.2919 26 22.0566V13.8987C25.9744 13.435 25.842 12.9835 25.6134 12.58C25.3847 12.1765 25.066 11.832 24.6824 11.5737Z" fill="#414042"/>
<path d="M29.8058 7.48555L18.1942 0.770149C17.5133 0.428099 16.7619 0.25 16 0.25C15.2381 0.25 14.4868 0.428099 13.8058 0.770149L2.1942 7.48555C1.55685 7.90135 1.0262 8.4614 0.645 9.12045C0.26385 9.7795 0.0429 10.5191 0 11.2794V24.7101C0.0421 25.472 0.262651 26.2134 0.643801 26.8742C1.02495 27.5351 1.55605 28.097 2.1942 28.5145L13.8058 35.23C14.4868 35.572 15.2381 35.75 16 35.75C16.7619 35.75 17.5133 35.572 18.1942 35.23L29.8058 28.5145C30.444 28.097 30.9751 27.5351 31.3562 26.8742C31.7374 26.2134 31.9579 25.472 32 24.7101V11.2794C31.9571 10.5191 31.7361 9.7795 31.355 9.12045C30.9738 8.4614 30.4432 7.90135 29.8058 7.48555ZM28.3149 23.1652C28.2808 23.7506 28.1102 24.3197 27.8167 24.8271C27.5232 25.3345 27.1149 25.7659 26.6246 26.0868L17.6797 31.2574C17.1572 31.5215 16.5801 31.6591 15.9947 31.6591C15.4094 31.6591 14.8322 31.5215 14.3097 31.2574L5.37535 26.0868C4.8851 25.7659 4.47685 25.3345 4.18335 24.8271C3.8898 24.3197 3.71915 23.7506 3.68505 23.1652V12.8347C3.71915 12.2494 3.8898 11.6802 4.18335 11.1729C4.47685 10.6655 4.8851 10.2341 5.37535 9.91315L14.2992 4.74265C14.8217 4.4785 15.3988 4.34085 15.9842 4.34085C16.5696 4.34085 17.1468 4.4785 17.6693 4.74265L26.6142 9.91315C27.1063 10.2329 27.5166 10.6639 27.812 11.1713C28.1074 11.6787 28.2797 12.2485 28.3149 12.8347V23.1652Z" fill="#414042"/>
<path d="M11.5 18C11.5 18.8406 11.7639 19.6622 12.2584 20.3611C12.7528 21.0601 13.4557 21.6048 14.278 21.9265C15.1002 22.2481 16.005 22.3323 16.8779 22.1684C17.7508 22.0044 18.5526 21.5996 19.1819 21.0052C19.8113 20.4108 20.2399 19.6536 20.4136 18.8292C20.5872 18.0047 20.4981 17.1502 20.1575 16.3736C19.8169 15.597 19.2401 14.9332 18.5001 14.4662C17.7601 13.9992 16.89 13.75 16 13.75C14.8066 13.75 13.662 14.1978 12.8181 14.9948C11.9741 15.7919 11.5 16.8728 11.5 18Z" fill="#414042"/>
</svg>
