<svg width="32" height="36" viewBox="0 0 32 36" fill="none" xmlns="http://www.w3.org/2000/svg">
<path d="M16 24.4465C15.0268 24.4509 14.0663 24.2151 13.1976 23.7586C12.3289 23.302 11.5765 22.6378 11.0023 21.8203L7 24.2117C7.1523 24.3943 7.3326 24.5494 7.53365 24.6707L14.6556 28.9411C15.0719 29.1623 15.5326 29.2776 16 29.2776C16.4674 29.2776 16.9281 29.1623 17.3443 28.9411L24.4664 24.6707C24.6674 24.5494 24.8477 24.3943 25 24.2117L21.008 21.7776C20.4371 22.6044 19.6852 23.2778 18.8142 23.742C17.9433 24.2061 16.9786 24.4477 16 24.4465Z" fill="#FCD34D"/>
<path d="M9.73365 18.0021C9.7373 16.4838 10.3274 15.0201 11.3911 13.8906C12.4549 12.7612 13.9178 12.0452 15.5 11.8796V7.27759C15.2599 7.32519 15.029 7.40779 14.8153 7.52249L7.39075 11.6041C6.9872 11.8616 6.65165 12.2047 6.4104 12.6066C6.1691 13.0085 6.02865 13.4581 6 13.9204V22.0837C6.0033 22.3192 6.0429 22.5531 6.11765 22.7776L10.29 20.4817C9.92515 19.7012 9.73565 18.8566 9.73365 18.0021Z" fill="#FCD34D"/>
<path d="M24.6824 11.6013L17.6487 7.52234C17.4463 7.40769 17.2274 7.32514 17 7.27759V11.8664C17.9556 11.9753 18.8724 12.3084 19.6766 12.839C20.4808 13.3696 21.1499 14.0827 21.6301 14.921C22.1103 15.7593 22.3881 16.6994 22.4412 17.6655C22.4943 18.6316 22.3212 19.5967 21.9358 20.4832L25.8885 22.7776C25.9593 22.5532 25.9969 22.3195 26 22.0842V13.9263C25.9744 13.4625 25.842 13.0111 25.6134 12.6076C25.3847 12.2041 25.066 11.8596 24.6824 11.6013Z" fill="#FCD34D"/>
<path d="M29.8058 7.51314L18.1942 0.797737C17.5133 0.455687 16.7619 0.277588 16 0.277588C15.2381 0.277588 14.4868 0.455687 13.8058 0.797737L2.1942 7.51314C1.55685 7.92894 1.0262 8.48899 0.645 9.14804C0.26385 9.80709 0.0429 10.5466 0 11.3069V24.7377C0.0421 25.4996 0.262651 26.241 0.643801 26.9018C1.02495 27.5627 1.55605 28.1246 2.1942 28.542L13.8058 35.2576C14.4868 35.5996 15.2381 35.7776 16 35.7776C16.7619 35.7776 17.5133 35.5996 18.1942 35.2576L29.8058 28.542C30.444 28.1246 30.9751 27.5627 31.3562 26.9018C31.7374 26.241 31.9579 25.4996 32 24.7377V11.3069C31.9571 10.5466 31.7361 9.80709 31.355 9.14804C30.9738 8.48899 30.4432 7.92894 29.8058 7.51314ZM28.3149 23.1928C28.2808 23.7782 28.1102 24.3473 27.8167 24.8547C27.5232 25.3621 27.1149 25.7935 26.6246 26.1144L17.6797 31.2849C17.1572 31.5491 16.5801 31.6867 15.9947 31.6867C15.4094 31.6867 14.8322 31.5491 14.3097 31.2849L5.37535 26.1144C4.8851 25.7935 4.47685 25.3621 4.18335 24.8547C3.8898 24.3473 3.71915 23.7782 3.68505 23.1928V12.8623C3.71915 12.277 3.8898 11.7078 4.18335 11.2005C4.47685 10.6931 4.8851 10.2616 5.37535 9.94074L14.2992 4.77024C14.8217 4.50609 15.3988 4.36844 15.9842 4.36844C16.5696 4.36844 17.1468 4.50609 17.6693 4.77024L26.6142 9.94074C27.1063 10.2605 27.5166 10.6914 27.812 11.1989C28.1074 11.7063 28.2797 12.2761 28.3149 12.8623V23.1928Z" fill="#FCD34D"/>
<path d="M11.5 18.0276C11.5 18.8681 11.7639 19.6898 12.2584 20.3887C12.7528 21.0877 13.4557 21.6324 14.278 21.9541C15.1002 22.2757 16.005 22.3599 16.8779 22.1959C17.7508 22.0319 18.5526 21.6272 19.1819 21.0328C19.8113 20.4384 20.2399 19.6811 20.4136 18.8567C20.5872 18.0323 20.4981 17.1778 20.1575 16.4012C19.8169 15.6246 19.2401 14.9608 18.5001 14.4938C17.7601 14.0268 16.89 13.7776 16 13.7776C14.8066 13.7776 13.662 14.2253 12.8181 15.0224C11.9741 15.8194 11.5 16.9004 11.5 18.0276Z" fill="#FCD34D"/>
</svg>
