<svg width="76" height="75" viewBox="0 0 76 75" fill="none" xmlns="http://www.w3.org/2000/svg">
<path d="M75.5 37.5C75.5 58.2107 58.7107 75 38 75C17.2893 75 0.5 58.2107 0.5 37.5C0.5 16.7893 17.2893 0 38 0C58.7107 0 75.5 16.7893 75.5 37.5ZM6.54596 37.5C6.54596 54.8716 20.6284 68.954 38 68.954C55.3716 68.954 69.454 54.8716 69.454 37.5C69.454 20.1284 55.3716 6.04596 38 6.04596C20.6284 6.04596 6.54596 20.1284 6.54596 37.5Z" fill="#F5F5F5"/>
<path d="M72.477 37.5C74.1466 37.5 75.5127 38.8556 75.3782 40.5197C75.0639 44.4099 74.1438 48.2335 72.6455 51.8506C70.7609 56.4003 67.9987 60.5343 64.5165 64.0165C61.0343 67.4987 56.9003 70.2609 52.3506 72.1455C48.7335 73.6438 44.9099 74.5639 41.0197 74.8782C39.3556 75.0127 38 73.6466 38 71.977V71.977C38 70.3075 39.3565 68.9691 41.0184 68.8089C44.1138 68.5105 47.1536 67.7541 50.0369 66.5597C53.8531 64.979 57.3206 62.6621 60.2414 59.7414C63.1621 56.8206 65.479 53.3531 67.0597 49.5369C68.2541 46.6536 69.0105 43.6138 69.3089 40.5184C69.4691 38.8565 70.8075 37.5 72.477 37.5V37.5Z" fill="#0A66C2"/>
</svg>
